# xmcd
#
# Track frame offsets:
#	182
#	16515
#	34155
#	67017
#	81320
#	93107
#	118717
#	135367
#	154180
#	177355
#	223065
#	233047
#	267227
#	285370
#	303150
#
# Disc length: 4198 seconds
#
# Revision: 0
# Processed by: cddbd v1.5.1PL0 Copyright (c) Steve Scherf et al.
# Submitted via: EasyCDDAExtractor 8.2.3.1
#
DISCID=c010640f
DTITLE=Hooked on Blues - I have to Stop
DYEAR=1992
DGENRE=Blues
TTITLE0=I have to Stop
TTITLE1=Crazy 'bout my baby
TTITLE2=Black night
TTITLE3=Just your fool
TTITLE4=Never miss you
TTITLE5=Low down dirty shame
TTITLE6=You got me running
TTITLE7=Tough times
TTITLE8=Same Blues
TTITLE9=Sad sad day
TTITLE10=Goin' out tonight
TTITLE11=Cold cold feeling
TTITLE12=Sky is cloudy
TTITLE13=Since the day i found out
TTITLE14=Jammin' with slim
EXTD=
EXTT0=
EXTT1=
EXTT2=
EXTT3=
EXTT4=
EXTT5=
EXTT6=
EXTT7=
EXTT8=
EXTT9=
EXTT10=
EXTT11=
EXTT12=
EXTT13=
EXTT14=
PLAYORDER=
